<?xml version="1.0" encoding="utf-8"?>
<!-- Generator: Adobe Illustrator 22.1.0, SVG Export Plug-In . SVG Version: 6.00 Build 0)  -->
<svg version="1.1" id="Layer_1" xmlns="http://www.w3.org/2000/svg" xmlns:xlink="http://www.w3.org/1999/xlink" x="0px" y="0px"
    viewBox="0 0 80 80" style="enable-background:new 0 0 80 80;" xml:space="preserve">
    <g>
        <path fill="#FFFFFF" d="M40,5c19.3,0,35,15.7,35,35S59.3,75,40,75S5,59.3,5,40S20.7,5,40,5 M40,0C17.9,0,0,17.9,0,40s17.9,40,40,40
            s40-17.9,40-40S62.1,0,40,0L40,0z"/>
    </g>
    <g>
        <g>
            <path fill="#FFFFFF" d="M52.7,38.1l-0.2-0.3l-0.2-0.3L52,37.1l-0.7-0.3L51,36.7l-0.3,0l-0.8-0.1l-0.4,0.1l-0.4,0.1l-0.3,0.1L48.4,37
                L48,37.1l-0.4,0.2l-0.3,0.2L47,37.7l-0.6,0.4l-0.3,0.2l-0.3,0.3l-0.2,0.2l-0.3,0.3L45,39.4l-0.1,0.3l-0.1,0.4l-0.1,0.3l-0.1,0.4
                l-0.1,0.4l-0.1,0.6l-0.1,0.5L44,42.7l-0.1,0.4l-0.1,0.4L43.7,44l-0.1,0.6l0,0.4v0.4l0,0.4v0.4l0,0.4v0.8l0.1,0.6l0.1,0.5l0.2,0.4
                l0.2,0.3l0.6,0.5l0.3,0.2l0.3,0.1l0.8,0.1L47,50l0.8-0.2l0.3-0.1l0.3-0.2l0.3-0.3l0.3-0.2l0.3-0.2c0,0,0-0.1,0.3-0.3
                c0.8-0.6,2-3.3,2-3.3l0.2-0.3l0.1-0.4l0.1-0.4l0.1-0.3l0.4-1.2l0.1-0.4l0-0.4l0.1-0.4l0.1-1.2v-1.2l0-0.4L52.7,38.1z"/>
        </g>
        <g>
            <path fill="#FFFFFF" d="M40,12.3c-15.3,0-27.7,12.4-27.7,27.7S24.7,67.7,40,67.7S67.7,55.3,67.7,40S55.3,12.3,40,12.3z M61.6,44.3
                l-0.2,0.3L61.2,45L61,45.4l-0.3,0.3l-0.2,0.2l-0.3,0.4l-0.2,0.3L59.8,47l-0.3,0.3l-0.3,0.3l-0.3,0.2L58.8,48l-0.3,0.3l-0.3,0.3
                l-0.3,0.2L57.5,49l-0.7,0.3l-0.4,0.1L56,49.5l-0.4,0l-0.4,0l-0.4,0h-0.7l-0.5,0l-0.8-0.1l-0.3,0.1l-0.3,0.2L52,50.1l-0.6,0.5
                l-0.3,0.2L50.7,51l-0.6,0.4l-0.3,0.2l-0.3,0.2l-0.4,0.2l-0.4,0.1l-0.3,0.1l-0.4,0.1l-0.4,0.1L46,52.5h-0.4l-0.9-0.1l-0.4,0
                L44,52.3l-1.2-0.4l-0.3-0.2l-0.4-0.2l-0.3-0.3L41.5,51l-0.3-0.3L41,50.3l-0.2-0.4l-0.1-0.3l-0.1-0.4l-0.2-0.8l-0.1-0.3l0-0.4
                l0-0.4l0-0.4v-0.3l-0.1,0.2l-0.1,0.3l-0.2,0.4l-0.4,0.7l-0.3,0.4L39,48.7l-0.3,0.3l-0.3,0.4l-0.3,0.3l-0.5,0.5l-0.3,0.3l-0.6,0.5
                l-0.3,0.3l-0.3,0.3l-0.3,0.2l-0.7,0.3l-0.3,0.1l-0.4,0.1l-0.4,0.1l-0.3,0l-0.4,0H33l-0.4,0l-0.3-0.1l-0.4-0.1l-0.3-0.1L31.2,52
                l-0.3-0.2l-0.3-0.3l-0.2-0.4l-0.1-0.3l-0.1-0.4L30.2,50v-0.9l0.1-0.6l0-0.4l0.1-0.6l0.4-1.4l0.1-0.7l0.2-0.7l0.2-0.7l0.2-0.6
                l0.1-0.4l0.2-0.6l0.2-0.7l0.1-0.7l0.2-0.6l0.2-0.8l0-0.4l0.2-0.8l0-0.4l-0.1-0.4l-0.3-0.4L32,37l-0.4-0.1l-0.4,0l-0.4,0l-0.5,0.2
                L30,37.2l-0.3,0.2l-0.3,0.2l-0.3,0.3l-0.3,0.3l-0.7,0.5l-0.3,0.2l-0.3,0.3l-0.3,0.3L26.7,40l-0.3,0.3l-0.5,0.6l-0.4,0.7l-0.3,0.3
                l-0.5,1l-0.5,1.4l-0.1,0.6l-0.2,0.6L23.7,46l-0.3,1.2l-0.2,0.6l-0.2,0.6L23,48.9l-0.1,0.4l-0.1,0.6l-0.1,0.5l-0.1,0.4l0,0.4
                l-0.1,0.3l-0.1,0.3L22,52.1l-0.4,0.1l-0.4,0l-0.6,0l-0.6,0l-0.6-0.1L19.2,52l-0.3-0.4l0-0.5l0.1-0.4l0.1-0.6l0.1-0.5l0.1-0.4
                l0.1-0.4l0.1-0.4l0.1-0.3l0.1-0.4l0.1-0.4l0.1-0.3l0.1-0.4l0.1-0.4l0.1-0.3l0.2-0.8l0.1-0.3l0-0.4l0.1-0.4l0.1-0.4l0.1-0.4
                l0.1-0.5l0.2-0.6l0.2-0.8l0.1-0.3l0.1-0.4l0.1-0.4l0.1-0.4l0.1-0.3l0.1-0.4l0.1-0.4l0.1-0.6l0.1-0.5l0.1-0.4l0.3-0.8l0.1-0.3
                l0.1-0.4l0.2-0.8l0.3-0.4l0.6-0.3l0.7-0.1l0.7,0.1l0.6,0.2l0.4,0.4l0.1,0.5L26.4,36l-0.1,0.3l-0.1,0.4l-0.1,0.4L26,37.4l-0.1,0.4
                l-0.1,0.4l-0.1,0.4l0,0.3l0,0l0.2-0.2l0.3-0.3l0.2-0.3l0.5-0.6l0.3-0.3l0.6-0.5l0.3-0.3l0.6-0.6l0.9-0.7l0.3-0.2l0.3-0.2l0.3-0.2
                l0.3-0.1l0.4-0.1l0.6-0.1l0.5-0.1h1l0.7,0.1l0.5,0.1l0.4,0.2l0.4,0.2l0.3,0.3l0.2,0.3l0.2,0.3L36,36l0.1,0.4l0.1,0.5l0.1,0.5v0.8
                l0,0.4V39l0,0.3l-0.1,0.4l-0.1,0.4L36,40.4l-0.1,0.4l-0.1,0.6L35.6,42l-0.2,0.6l-0.1,0.4l-0.1,0.6L35,44.2l-0.2,0.7l-0.2,0.6
                l-0.1,0.4l-0.1,0.3l-0.1,0.4l-0.1,0.4l-0.1,0.3l-0.3,1.2l0,0.4v0.8l0.2,0.3l0.3,0.2l0.4,0l0.4-0.1l0.4-0.2l0.3-0.2l0.3-0.2
                l0.3-0.3l0.6-0.6l0.2-0.3l0.3-0.3l0.2-0.3l0.3-0.3l0.2-0.3l0.3-0.4l0.4-0.6l0.3-0.4l0.1-0.2l0.3-0.4l0.2-0.4l0.3-0.7l0.2-0.4
                l0.1-0.3l0.1-0.4l0.2-0.3l0,0l0.1-0.8l0.1-0.6l0.1-0.4l0.2-0.8l0-0.4l0.1-0.4l0.1-0.4l0.1-0.4l0.1-0.4l0.2-0.8l0.2-0.6l0.1-0.5
                l0.2-0.8l0.1-0.4l0.2-0.8l0.1-0.4l0.1-0.3l0.3-0.8l0.1-0.3l0.3-0.8l0.1-0.3l0.2-0.4l0.3-0.7l0.1-0.4l0.1-0.4l0.1-0.3l0.1-0.4
                l0.1-0.4l0.1-0.3l0.2-0.4l0.1-0.3l0.2-0.4l0.1-0.3l0.1-0.4l0.2-0.3l0.1-0.4l0.1-0.3l0.4-1.2l0.3-0.7l0.3-0.3l0.3-0.2l0.4-0.1
                l0.8,0.1l0.4,0.1l0.4,0.1l0.3,0.2l0.3,0.3l0.1,0.3l-0.1,0.3l-0.2,0.4l-0.1,0.3l-0.2,0.4l-0.1,0.3l-0.1,0.4l-0.1,0.3l-0.2,0.3
                l-0.2,0.4l-0.2,0.3l-0.3,0.8l-0.1,0.3L48.1,29L48,29.3l-0.1,0.3l-0.3,0.8L47.4,31l-0.2,0.5l-0.2,0.4l-0.1,0.4l-0.1,0.4L46.7,33
                l-0.1,0.3l-0.3,0.8l-0.1,0.3l-0.1,0.4L46,35.2l0,0.3l-0.1,0.4l0,0.3l0.2,0l0.4-0.2l0.3-0.3l0.4-0.3l0.5-0.3L48,35l0.5-0.2l0.5-0.2
                l0.4-0.1l0.6-0.1l0.7-0.1l0.7,0H52l0.4,0l0.8,0.2l0.3,0.2l0.4,0.2l0.3,0.2l0.3,0.2l0.5,0.6l0.2,0.3l0.3,0.3l0.2,0.3l0.1,0.4
                l0.2,0.3l0.1,0.4l0.1,0.4l0,0.3l0.1,0.4l0,0.4l0,0.4v0.4l0,0.4v0.4l0,0.4l0,0.4l-0.2,0.8l0,0.4l-0.2,0.8l-0.3,0.8l-0.1,0.4
                l-0.3,0.8L55.1,46l-0.2,0.3l-0.3,0.8l-0.3,0.3l-0.1,0.3l0.1,0.2l0.3,0.1l0.4,0l0.4,0l0.4,0l0.4-0.1l0.3-0.1l0.4-0.1l0.3-0.2
                l0.6-0.5l0.3-0.2l0.6-0.6l0.2-0.3l0.2-0.3l0.3-0.3l0.4-0.7l0.2-0.3l0.2-0.3l0.2-0.4l0.1-0.3l0.2-0.3l0.3-0.2l0.5,0.1l0.3,0.4
                l0.1,0.5l-0.1,0.4L61.6,44.3z"/>
        </g>
    </g>
</svg>
